<?xml version="1.0" standalone="no"?>
<!DOCTYPE svg PUBLIC "-//W3C//DTD SVG 20010904//EN"
 "http://www.w3.org/TR/2001/REC-SVG-20010904/DTD/svg10.dtd">
<svg version="1.0" xmlns="http://www.w3.org/2000/svg"
 width="3574.000000pt" height="3566.000000pt" viewBox="0 0 3574.000000 3566.000000"
 preserveAspectRatio="xMidYMid meet">

<g transform="translate(0.000000,3566.000000) scale(0.100000,-0.100000)"
fill="#000000" stroke="none">
<path d="M0 17830 l0 -17830 17870 0 17870 0 0 17830 0 17830 -17870 0 -17870
0 0 -17830z m26956 15169 c7 -13 15 -34 19 -47 6 -22 5 -22 -15 -10 -18 11
-60 84 -60 105 0 13 46 -26 56 -48z m393 -226 c14 -11 31 -38 38 -61 10 -38
10 -42 -5 -42 -19 0 -192 107 -192 119 0 4 30 6 66 5 48 -1 74 -7 93 -21z
m823 -578 c6 -27 1 -30 -21 -16 -12 8 -12 12 -2 25 17 21 18 20 23 -9z m457
-269 c15 -8 40 -31 56 -51 l27 -37 -68 7 c-52 6 -77 14 -102 34 l-33 26 38 17
c47 21 47 21 82 4z m494 -409 c27 -22 27 -24 9 -40 -21 -19 -84 -47 -107 -47
-8 0 -29 13 -46 28 l-32 28 52 22 c28 11 51 26 51 31 0 6 -11 18 -25 27 -14 9
-22 20 -19 25 5 9 59 -25 117 -74z m-208 42 c5 -6 5 -13 -1 -19 -7 -7 -18 -2
-35 16 l-24 26 25 -7 c14 -4 29 -11 35 -16z m527 -369 c29 -11 61 -20 71 -20
15 0 16 -3 7 -20 -9 -18 -21 -20 -99 -20 -79 0 -90 2 -110 24 l-22 24 22 16
c31 21 68 20 131 -4z m327 -227 c12 -14 20 -27 19 -28 -2 -1 -27 -5 -55 -9
l-53 -7 0 30 c0 29 10 37 52 40 9 0 26 -11 37 -26z m121 -303 c0 -5 7 -10 15
-10 8 0 15 5 15 10 0 7 38 10 108 8 61 -2 106 -7 105 -13 -1 -5 -47 -21 -101
-36 l-100 -27 -38 39 c-28 29 -33 39 -21 39 9 0 17 -4 17 -10z m274 -267 c-19
-14 -58 -18 -51 -5 2 4 7 15 10 24 5 15 10 16 33 6 24 -11 25 -13 8 -25z m293
-89 c-4 -4 -125 15 -135 22 -2 2 9 19 25 38 l28 36 44 -45 c24 -25 41 -48 38
-51z m-142 -24 c19 -36 10 -37 -50 -8 -47 23 -45 38 7 38 20 0 31 -8 43 -30z
m288 -100 l75 -65 -29 -6 c-36 -8 -57 -25 -61 -50 -3 -17 -13 -11 -69 38 -37
32 -82 70 -100 85 l-34 27 42 0 c34 1 46 6 59 26 19 29 17 30 117 -55z m-99
-215 c3 -9 0 -15 -8 -15 -7 0 -19 7 -26 15 -10 12 -9 15 8 15 11 0 22 -7 26
-15z m1114 -858 c29 -30 58 -111 38 -104 -98 38 -166 71 -163 81 4 13 65 45
88 46 8 0 25 -10 37 -23z m-188 -67 c0 -10 -27 -69 -36 -79 -2 -3 -15 6 -29
19 l-25 24 37 22 c44 26 53 28 53 14z m334 -137 c16 -57 18 -93 3 -93 -8 0
-29 -3 -46 -6 -38 -8 -40 6 -9 71 23 47 43 58 52 28z m-130 -159 c3 -9 6 -23
6 -32 0 -13 -5 -11 -19 8 -19 23 -19 40 -1 40 4 0 11 -7 14 -16z m131 -76 c1
-2 -5 -20 -15 -41 l-17 -37 -40 48 -41 48 55 -7 c30 -4 56 -9 58 -11z m29
-119 c13 -6 26 -22 29 -35 6 -32 -2 -29 -36 12 -31 37 -31 40 7 23z m594 -609
c9 0 28 11 42 25 l27 26 65 -98 c35 -54 68 -104 72 -111 18 -30 -30 -19 -136
31 -125 59 -144 80 -132 143 l6 34 20 -25 c11 -14 27 -25 36 -25z m182 -280
c-22 -30 -48 -34 -74 -9 -9 8 47 37 77 38 17 1 17 -1 -3 -29z m120 -50 c11
-22 20 -42 20 -45 0 -5 -70 21 -78 30 -8 8 20 65 29 59 5 -3 18 -23 29 -44z
m70 -415 c0 -8 -2 -15 -4 -15 -2 0 -6 7 -10 15 -3 8 -1 15 4 15 6 0 10 -7 10
-15z m217 -35 c28 0 34 -5 53 -46 11 -26 20 -48 20 -50 0 -4 -202 94 -209 102
-3 4 19 4 49 0 30 -3 69 -6 87 -6z m258 -410 c32 -62 57 -153 53 -191 l-3 -32
-51 49 c-47 45 -53 55 -63 115 -6 36 -11 90 -11 119 l0 54 26 -35 c14 -19 36
-54 49 -79z m235 -440 c0 -10 -29 -24 -74 -36 -17 -4 -27 1 -40 20 l-16 26 65
0 c38 0 65 -4 65 -10z m2020 -6401 c6 -41 15 -100 20 -131 11 -68 -1 -116 -34
-148 l-25 -23 -8 29 c-15 58 -7 157 17 207 22 47 22 49 5 93 -17 46 -13 96 5
63 5 -9 14 -49 20 -90z m76 -611 l24 -47 -23 -3 c-17 -2 -23 -11 -25 -35 -4
-42 -16 -42 -36 1 -19 40 -21 104 -4 141 11 25 13 26 26 8 7 -10 24 -39 38
-65z m9 -250 c26 -31 27 -36 20 -103 -4 -38 -8 -89 -9 -112 0 -23 -6 -47 -13
-54 -9 -9 -13 0 -18 37 -4 27 -15 76 -26 108 -22 69 -24 95 -7 131 15 32 21
32 53 -7z m14 -530 c-1 -88 -3 -104 -10 -73 -11 57 -11 185 1 185 6 0 10 -43
9 -112z m-370 -4212 c-9 -8 -10 -5 -5 14 3 14 6 32 7 40 1 8 4 2 6 -14 3 -16
-1 -34 -8 -40z m-881 -2977 c-31 -88 -61 -139 -83 -139 -8 0 -13 6 -10 13 2 6
15 51 29 99 23 74 30 88 54 96 15 6 30 11 33 11 3 1 -7 -36 -23 -80z m-157
-367 c-12 -38 -28 -75 -37 -82 -12 -11 -11 -4 4 36 11 27 25 66 32 87 21 67
22 32 1 -41z m-453 -983 c-57 -83 -65 -83 -15 0 23 38 45 67 49 65 4 -3 -11
-32 -34 -65z m-398 -726 c-1 -5 -16 -37 -35 -73 l-35 -65 7 45 c6 48 19 81 37
92 14 10 26 10 26 1z m-4620 -5406 c-72 -65 -233 -188 -242 -185 -7 3 46 48
117 101 121 89 160 116 125 84z"/>
</g>
</svg>
