<?xml version="1.0" standalone="no"?>
<!DOCTYPE svg PUBLIC "-//W3C//DTD SVG 20010904//EN"
 "http://www.w3.org/TR/2001/REC-SVG-20010904/DTD/svg10.dtd">
<svg version="1.0" xmlns="http://www.w3.org/2000/svg"
 width="749.000000pt" height="749.000000pt" viewBox="0 0 749.000000 749.000000"
 preserveAspectRatio="xMidYMid meet">

<g transform="translate(0.000000,749.000000) scale(0.100000,-0.100000)"
fill="#000000" stroke="none">
<path d="M1 7188 c1 -222 4 -282 10 -225 18 176 65 283 164 375 34 32 86 70
116 84 55 26 170 55 244 61 22 2 -89 4 -247 5 l-288 2 1 -302z"/>
<path d="M1135 7483 c628 -52 1250 -233 1840 -537 438 -226 767 -461 1101
-788 l161 -158 974 0 974 0 642 -642 c354 -354 643 -647 643 -653 -1 -5 -1053
-1065 -2340 -2355 l-2339 -2345 -650 650 -651 650 0 987 0 987 -131 133 c-260
262 -478 547 -681 886 -90 151 -272 520 -338 687 -174 434 -296 931 -329 1330
-5 55 -9 -1343 -10 -3107 l-1 -3208 2647 0 2648 0 -398 398 -397 397 203 203
c111 111 207 202 212 202 5 0 187 -177 402 -392 l393 -393 -207 -207 -208
-208 1098 0 1097 0 0 212 0 213 -205 -205 -205 -205 -848 848 -847 847 208
207 207 208 845 -845 845 -845 0 880 0 880 -208 -208 -207 -207 -393 393
c-215 215 -392 397 -392 402 0 6 92 102 205 215 l205 205 395 -395 395 -395 0
2643 0 2642 -3197 -2 c-1759 -1 -3180 -3 -3158 -5z"/>
<path d="M593 6603 c3 -198 10 -333 21 -403 120 -788 458 -1545 956 -2147 107
-129 2191 -2208 2214 -2208 14 0 1876 1868 1876 1881 -1 5 -481 491 -1068
1080 -1073 1077 -1133 1134 -1372 1305 -312 223 -748 444 -1135 576 -161 54
-408 120 -578 153 -240 46 -391 60 -671 60 l-248 0 5 -297z m1244 -559 c179
-85 223 -314 88 -462 -123 -137 -349 -121 -453 31 -42 60 -55 109 -50 185 8
142 99 244 242 272 57 11 112 2 173 -26z m1186 -828 c88 -28 171 -79 243 -151
80 -78 122 -152 154 -267 78 -282 -86 -592 -368 -695 -90 -34 -241 -42 -330
-19 -92 23 -156 53 -220 103 -152 117 -231 277 -232 465 0 170 51 291 174 414
87 87 162 131 272 159 72 18 237 13 307 -9z m1017 -1378 c99 -42 161 -132 168
-243 11 -177 -98 -301 -276 -313 -66 -4 -78 -2 -138 28 -117 57 -171 154 -162
289 15 200 220 321 408 239z"/>
<path d="M5211 5020 c213 -217 497 -504 631 -637 l243 -243 280 280 280 280
-355 355 -355 355 -556 2 -557 3 389 -395z"/>
<path d="M2080 2119 l0 -574 355 -355 355 -355 291 291 290 290 -645 638 -646
638 0 -573z"/>
</g>
</svg>
